<svg viewBox="0 0 1024 263" xmlns="http://www.w3.org/2000/svg" fill-rule="evenodd" clip-rule="evenodd" stroke-linejoin="round" stroke-miterlimit="2"><path fill="none" d="M0 0h1024v263H0z"/><path d="M161.98 6.62H175l113.74 197v.01l-24.49 41.75-99.54-.02 10.09 17.4h-4.39l-10.09-17.4-123.47-.01h-.09l-6.32-11.09H22.6L0 195.12l.02-.01v-.01l29-50.24 26.83-15.48 44.39-76.89-8.93-15.45L112.7 0h45.46l3.82 6.62zm-22.51 61.39L60.95 203.66h75.18l-8.69-14.99 81.91.07-69.88-120.73zm391.72 14.25H478.7v43.63h30.04v10.18H478.7v54.74h-10.94V71.96h63.43v10.3zM804.8 190.81h-11.06V71.96h11.06v118.85zm-154.28 0h-11.07V71.96h11.07v118.85zM617.04 82.26h-52.49v43.63h30.03v10.18h-30.03v54.74H553.6V71.96h63.44v10.3zm284.47 0h-31.56v108.55h-11.07V82.26h-31.73v-10.3h74.36v10.3zm-217.6 108.55h-10.95V71.96h11.77l75.45 100.21V71.96h11.08v118.85h-10.8L683.91 88.82v101.99zm288.82 0h-11.19v-29.07l-51.26-89.78h12.62l44.24 77.03 44.24-77.03H1024l-51.27 89.78v29.07zm-514.75 0h-11.79L400.17 87.08c-2.88 6.63-30.9 70.35-33.89 77.09 5.87 0 56.09.5 58.97.52l4.58 9.99c-10.02-.06-54.92-.2-68.21-.2-1.21 2.56-6.31 13.88-7.31 16.33h-11.79l52.66-118.85h10.13l52.67 118.85z" fill="#fff"/></svg>