<?xml version="1.0" encoding="UTF-8"?>
<svg id="Layer_1" data-name="Layer 1" xmlns="http://www.w3.org/2000/svg" viewBox="0 0 1016.08 181.5">
  <defs>
    <style>
      .cls-1 {
        fill: #fff;
        stroke-width: 0px;
      }
    </style>
  </defs>
  <polygon class="cls-1" points="179.87 82.34 124.24 77.03 159.91 34.09 148.32 22.49 105.27 58.16 100.06 2.54 83.75 2.54 78.54 58.16 35.49 22.49 23.99 34.09 59.57 77.03 3.94 82.34 3.94 98.66 59.57 103.87 23.99 146.91 35.49 158.41 78.54 122.83 83.75 178.46 100.06 178.46 105.27 122.83 148.32 158.41 159.91 146.91 124.24 103.87 179.87 98.66 179.87 82.34"/>
  <path class="cls-1" d="M205.42,178.36V2.63h116.17v28.6h-84.13v147.13h-32.14.1ZM230.97,108.29v-28.6h84.33v28.6h-84.33Z"/>
  <path class="cls-1" d="M332.79,178.36V2.63h29.58v175.73h-29.58Z"/>
  <path class="cls-1" d="M437.36,180.82c-12.87,0-24.08-2.65-33.61-8.06-9.53-5.41-16.9-13.17-22.21-23.49s-7.86-22.6-7.86-37.05,2.65-26.93,7.86-37.15c5.31-10.22,12.68-17.99,22.21-23.49,9.53-5.41,20.74-8.16,33.61-8.16s23.88,2.75,33.42,8.16,16.9,13.27,22.21,23.49c5.31,10.22,7.86,22.6,7.86,37.15s-2.65,26.73-7.86,37.05c-5.31,10.32-12.68,18.08-22.21,23.49-9.53,5.41-20.64,8.06-33.42,8.06h0ZM437.36,154.28c6.39,0,12.09-1.57,17.3-4.62,5.21-3.05,9.24-7.86,12.19-14.15,2.95-6.39,4.42-14.05,4.42-23.1s-1.47-17-4.42-23.39-6.98-11.11-12.19-14.15-11.01-4.62-17.3-4.62-12.38,1.57-17.59,4.62c-5.21,3.05-9.24,7.86-12.19,14.15-2.95,6.39-4.42,14.15-4.42,23.39s1.47,16.71,4.42,23.1c2.95,6.39,6.98,11.11,12.19,14.15s11.01,4.62,17.59,4.62Z"/>
  <path class="cls-1" d="M560.9,180.82c-9.34,0-17.79-2.16-25.26-6.49-7.47-4.32-13.27-10.52-17.49-18.58-4.23-8.06-6.29-17.49-6.29-28.4V45.98h29.58v78.04c0,6.39,1.08,11.79,3.24,16.31s5.31,7.96,9.34,10.32,8.75,3.54,14.35,3.54,10.42-1.28,14.84-3.93c4.32-2.56,7.76-6.19,10.12-10.91,2.46-4.72,3.64-9.83,3.64-15.33V45.98h29.39v132.29h-24.87l-3.24-15.82h-1.28c-4.32,6-9.63,10.61-15.92,13.66s-12.97,4.62-20.25,4.62h.1v.1Z"/>
  <path class="cls-1" d="M643.46,178.36V46.08h25.06l3.24,16.12h1.28c3.54-5.7,8.06-9.83,13.56-12.29,5.5-2.56,11.89-3.73,19.07-3.73h15.53v28.4h-13.76c-7.08,0-13.07,1.38-18.18,4.13-5.11,2.75-9.04,6.58-11.89,11.4-2.85,4.82-4.23,10.52-4.23,17.1v71.25h-29.68v-.1Z"/>
  <path class="cls-1" d="M731.82,178.36V46.08h29.58v132.29h-29.58ZM731.52,29.86V2.63h29.58v27.22h-29.58Z"/>
  <path class="cls-1" d="M828.53,180.82c-10.22,0-19.26-1.67-27.13-4.91-7.86-3.24-14.25-7.96-19.07-14.15s-8.16-13.66-9.83-22.31h31.65c.98,4.72,3.73,8.45,8.16,11.3,4.42,2.85,9.83,4.23,16.22,4.23s15.33-1.28,19.46-3.93c4.13-2.56,6.19-6.09,6.19-10.42s-1.18-5.7-3.54-7.67-5.31-3.44-9.04-4.62c-3.73-1.18-8.75-2.46-15.04-3.73-10.22-2.16-18.58-4.52-25.06-6.98-6.49-2.46-12.19-6.49-17.1-12.09s-7.27-13.27-7.27-23.1,2.06-13.76,6.19-19.56c4.13-5.9,10.02-10.52,17.79-14.05s16.9-5.31,27.52-5.31,18.58,1.47,26.14,4.52c7.57,3.05,13.76,7.37,18.58,13.07s8.06,12.68,9.53,20.84h-31.65c-.98-3.64-3.34-6.68-7.08-9.04-3.73-2.36-8.85-3.54-15.53-3.54s-12.09,1.18-15.73,3.54c-3.64,2.36-5.41,5.5-5.41,9.53s1.18,6,3.64,8.06c2.46,2.06,5.5,3.64,9.14,4.91s8.75,2.56,15.33,3.93c10.22,2.16,18.58,4.52,24.96,6.88,6.49,2.46,12.09,6.39,16.81,11.89,4.72,5.5,7.17,13.07,7.17,22.6s-2.26,15.33-6.68,21.33c-4.42,6-10.81,10.71-19.16,13.96-8.35,3.24-18.38,4.91-30.17,4.91h0v-.1Z"/>
  <path class="cls-1" d="M895.65,178.36V2.63h29.58v58.18h1.28c4.52-5.9,9.63-10.22,15.14-13.07,5.6-2.85,12.09-4.23,19.46-4.23s17.99,2.16,25.36,6.49,13.17,10.52,17.3,18.58c4.13,8.06,6.29,17.59,6.29,28.6v81.08h-29.39v-77.84c0-6.39-1.08-11.79-3.24-16.31s-5.31-7.96-9.24-10.42c-3.93-2.46-8.75-3.64-14.35-3.64s-10.42,1.38-14.84,4.03c-4.32,2.65-7.76,6.29-10.12,10.91-2.46,4.62-3.64,9.73-3.64,15.43v77.84h-29.58v.1Z"/>
</svg>