<svg version="1.1" id="Graphane" xmlns="http://www.w3.org/2000/svg"
	 viewBox="0 0 60 60" xml:space="preserve">
<g>
    <path fill="#00D800" d="M47.3,20H35.1L29,30.8l6.1,10.8h12.3l6.1-10.8L47.3,20z M46.6,40.2H35.9l-5.4-9.4l5.4-9.4h10.7l5.4,9.4 L46.6,40.2z"/>
	<path fill="#0000D8" d="M14.6,31.5L8.5,42.2L14.6,53h12.3L33,42.2l-6.1-10.8C26.9,31.5,14.6,31.5,14.6,31.5z M26.1,51.7H15.4L10,42.2 l5.4-9.4h10.7l5.4,9.4L26.1,51.7z"/>
	<path fill="#D80000" d="M26.9,29.5L33,18.8L26.9,8H14.6L8.5,18.8l6.1,10.8H26.9L26.9,29.5z M15.4,9.3h10.7l5.4,9.4l-5.4,9.4H15.4 L10,18.8L15.4,9.3z"/>
</g>
</svg>
