<?xml version="1.0" encoding="UTF-8"?><svg id="After_Effects_40" data-name="After Effects 40" xmlns="http://www.w3.org/2000/svg" width="40" height="39" viewBox="0 0 40 39">
  <path id="Path_99504" data-name="Path 99504" d="M7.125,0H33a7.005,7.005,0,0,1,7,7.1V31.9A7.11,7.11,0,0,1,32.875,39H7.125A7.11,7.11,0,0,1,0,31.9V7.1A7.032,7.032,0,0,1,7.125,0Z" fill="#00005b"/>
  <path id="Path_99505" data-name="Path 99505" d="M15.135,21.375H8.885L7.635,25.25c0,.125-.125.25-.375.25H4.135c-.125.125-.25,0-.125-.25L9.385,9.875c0-.125.125-.375.125-.5A3.461,3.461,0,0,0,9.635,8.25L9.76,8h4.25c.125,0,.25,0,.25.125L20.385,25.25c0,.125,0,.25-.125.25h-3.5a.269.269,0,0,1-.25-.25Zm-5.25-3.25h4.25c-.125-.375-.25-.75-.375-1.25a6.093,6.093,0,0,0-.5-1.375c-.125-.5-.375-1-.5-1.5a7.047,7.047,0,0,0-.5-1.5,6.736,6.736,0,0,1-.375-1.25h0a10.558,10.558,0,0,1-.625,2.125c-.25.75-.5,1.625-.75,2.5A15.113,15.113,0,0,1,9.885,18.125Z" transform="translate(0.99 1.942)" fill="#99f"/>
  <path id="Path_99506" data-name="Path 99506" d="M26.8,19.05H21.55a7.047,7.047,0,0,0,.5,1.5,2.5,2.5,0,0,0,1.25,1,5.839,5.839,0,0,0,2.125.375,8.441,8.441,0,0,0,1.75-.25l1.5-.375c.125-.125.125,0,.125.125v2.75l-.125.125a8.085,8.085,0,0,1-1.625.5,15.315,15.315,0,0,1-2.375.25,8.361,8.361,0,0,1-3.25-.625A6.443,6.443,0,0,1,19.3,22.8a6.949,6.949,0,0,1-1.125-2.125A7.849,7.849,0,0,1,17.8,18.3a9.515,9.515,0,0,1,.375-2.625,6.555,6.555,0,0,1,1.25-2.25,6.36,6.36,0,0,1,2-1.625,6.359,6.359,0,0,1,2.75-.5,6.528,6.528,0,0,1,2.625.5,4.5,4.5,0,0,1,1.75,1.375,6.853,6.853,0,0,1,1,1.875,5.662,5.662,0,0,1,.375,2v1.125a1.353,1.353,0,0,1-.125.75.269.269,0,0,1-.25.25h-1.5A4.252,4.252,0,0,0,26.8,19.05Zm-5.25-2.5h4.5a.459.459,0,0,0,.375-.125V16.3a1.127,1.127,0,0,0-.125-.625,1.922,1.922,0,0,0-2.125-1.5,2.793,2.793,0,0,0-2.25,1.25A2.016,2.016,0,0,0,21.55,16.55Z" transform="translate(4.45 2.755)" fill="#99f"/>
</svg>
