<?xml version="1.0" encoding="UTF-8"?><svg id="Premiere_Pro_40" data-name="Premiere Pro 40" xmlns="http://www.w3.org/2000/svg" width="40" height="39" viewBox="0 0 40 39">
  <path id="Path_99553" data-name="Path 99553" d="M7.125,0H33a7.005,7.005,0,0,1,7,7.1V31.9A7.11,7.11,0,0,1,32.875,39H7.125A7.11,7.11,0,0,1,0,31.9V7.1A7.032,7.032,0,0,1,7.125,0Z" fill="#00005b"/>
  <path id="Path_99554" data-name="Path 99554" d="M7.6,25.447V8.251c0-.126,0-.251.126-.251H13a8.774,8.774,0,0,1,3.389.5,5.253,5.253,0,0,1,2.259,1.381A4.966,4.966,0,0,1,19.9,11.766a6.375,6.375,0,0,1,.377,2.134,6.123,6.123,0,0,1-1,3.515,5.95,5.95,0,0,1-2.636,2.008,11.833,11.833,0,0,1-3.766.628H11.24v5.4a.438.438,0,0,1-.126.251H7.851A.27.27,0,0,1,7.6,25.447Zm3.64-14.184v5.648h1.506a9.689,9.689,0,0,0,1.883-.251,3.25,3.25,0,0,0,1.381-.879,2.454,2.454,0,0,0,.5-1.757,3.342,3.342,0,0,0-.377-1.506,4.33,4.33,0,0,0-1.13-1A5.2,5.2,0,0,0,13,11.138h-1.13A1.365,1.365,0,0,1,11.24,11.264Z" transform="translate(1.882 1.908)" fill="#99f"/>
  <path id="Path_99555" data-name="Path 99555" d="M19.526,11.451h2.887c.126,0,.251.126.377.251,0,.126.126.251.126.377s.126.377.126.5v.628A4.517,4.517,0,0,1,24.8,11.828a5.714,5.714,0,0,1,2.51-.628.438.438,0,0,1,.251.126h0v3.264a.27.27,0,0,1-.251.251,7.719,7.719,0,0,0-1.757.126,4.5,4.5,0,0,0-1.381.5,2.251,2.251,0,0,0-.879.628v8.535a.27.27,0,0,1-.251.251H19.777a.27.27,0,0,1-.251-.251V12.706a3.475,3.475,0,0,0-.126-1.13l.126-.126Z" transform="translate(4.824 2.7)" fill="#99f"/>
</svg>
