<?xml version="1.0"?>
<!-- Generated by SVGo (float) -->
<svg width="1584.00" height="2016.00"
     xmlns="http://www.w3.org/2000/svg"
     xmlns:xlink="http://www.w3.org/1999/xlink">
<a xlink:href="f-00001.svg" xlink:title="Link to slide 001">
<ellipse cx="792.00" cy="1209.60" rx="675.18" ry="675.18" style="fill:crimson;fill-opacity:1.00" />
<ellipse cx="792.00" cy="1209.60" rx="673.20" ry="673.20" style="fill:rgb(240,240,240);fill-opacity:1.00" />
<path d="M1030.01,971.59 A336.60,336.60 0.00 0 0 1017.23,959.46" style="fill:none;stroke-width:673.20px;stroke:crimson;stroke-opacity:1.00" />
<path d="M623.70,918.10 A336.60,336.60 0.00 0 0 584.77,944.36" style="fill:none;stroke-width:673.20px;stroke:crimson;stroke-opacity:1.00" />
<path d="M456.68,1180.26 A336.60,336.60 0.00 0 0 456.68,1238.94" style="fill:none;stroke-width:673.20px;stroke:crimson;stroke-opacity:1.00" />
<path d="M553.99,1447.61 A336.60,336.60 0.00 0 0 575.64,1467.45" style="fill:none;stroke-width:673.20px;stroke:crimson;stroke-opacity:1.00" />
<path d="M960.30,1501.10 A336.60,336.60 0.00 0 0 1008.36,1467.45" style="fill:none;stroke-width:673.20px;stroke:crimson;stroke-opacity:1.00" />
<path d="M1127.78,1233.08 A336.60,336.60 0.00 0 0 1128.60,1209.60" style="fill:none;stroke-width:673.20px;stroke:crimson;stroke-opacity:1.00" />
<path d="M1028.97,970.55 A336.60,336.60 0.00 0 0 1018.32,960.44" style="fill:none;stroke-width:673.20px;stroke:black;stroke-opacity:1.00" />
<path d="M622.43,918.83 A336.60,336.60 0.00 0 0 581.31,947.09" style="fill:none;stroke-width:673.20px;stroke:black;stroke-opacity:1.00" />
<path d="M456.56,1181.73 A336.60,336.60 0.00 0 0 457.73,1249.16" style="fill:none;stroke-width:673.20px;stroke:black;stroke-opacity:1.00" />
<path d="M555.03,1448.65 A336.60,336.60 0.00 0 0 574.51,1466.50" style="fill:none;stroke-width:673.20px;stroke:black;stroke-opacity:1.00" />
<path d="M961.57,1500.37 A336.60,336.60 0.00 0 0 1007.24,1468.39" style="fill:none;stroke-width:673.20px;stroke:black;stroke-opacity:1.00" />
<path d="M1127.88,1231.61 A336.60,336.60 0.00 0 0 1128.60,1211.07" style="fill:none;stroke-width:673.20px;stroke:black;stroke-opacity:1.00" />
<path d="M1265.45,645.36 A736.56,736.56 0.00 0 0 369.53,606.25" style="fill:none;stroke-width:1.58px;stroke:gray;stroke-opacity:1.00" />
<path d="M328.47,637.19 A736.56,736.56 0.00 0 0 56.45,1248.15" style="fill:none;stroke-width:1.58px;stroke:gray;stroke-opacity:1.00" />
<path d="M60.93,1299.36 A736.56,736.56 0.00 0 0 299.15,1756.97" style="fill:none;stroke-width:1.58px;stroke:gray;stroke-opacity:1.00" />
<path d="M338.53,1790.02 A736.56,736.56 0.00 0 0 1235.27,1797.84" style="fill:none;stroke-width:1.58px;stroke:gray;stroke-opacity:1.00" />
<path d="M1275.23,1765.49 A736.56,736.56 0.00 0 0 1523.07,1299.36" style="fill:none;stroke-width:1.58px;stroke:gray;stroke-opacity:1.00" />
<path d="M1528.56,1209.60 A736.56,736.56 0.00 0 0 1312.83,688.77" style="fill:none;stroke-width:1.58px;stroke:gray;stroke-opacity:1.00" />
<line x1="633.60" y1="151.20" x2="950.40" y2="151.20" style="stroke-width:1.58px;stroke:rgb(127,127,127);stroke-opacity:1.00" />
<line x1="633.60" y1="252.00" x2="950.40" y2="252.00" style="stroke-width:1.58px;stroke:rgb(127,127,127);stroke-opacity:1.00" />
<line x1="1298.88" y1="685.44" x2="1235.52" y2="705.60" style="stroke-width:2.00px;stroke:rgb(127,127,127);stroke-opacity:1.00" />
<line x1="1267.20" y1="645.12" x2="1235.52" y2="705.60" style="stroke-width:2.00px;stroke:rgb(127,127,127);stroke-opacity:1.00" />
<line x1="380.16" y1="604.80" x2="380.16" y2="670.32" style="stroke-width:2.00px;stroke:rgb(127,127,127);stroke-opacity:1.00" />
<line x1="332.64" y1="635.04" x2="380.16" y2="670.32" style="stroke-width:2.00px;stroke:rgb(127,127,127);stroke-opacity:1.00" />
<line x1="63.36" y1="1249.92" x2="126.72" y2="1270.08" style="stroke-width:2.00px;stroke:rgb(127,127,127);stroke-opacity:1.00" />
<line x1="63.36" y1="1290.24" x2="126.72" y2="1270.08" style="stroke-width:2.00px;stroke:rgb(127,127,127);stroke-opacity:1.00" />
<line x1="328.68" y1="1788.19" x2="356.40" y2="1723.68" style="stroke-width:2.00px;stroke:rgb(127,127,127);stroke-opacity:1.00" />
<line x1="300.96" y1="1753.92" x2="356.40" y2="1723.68" style="stroke-width:2.00px;stroke:rgb(127,127,127);stroke-opacity:1.00" />
<line x1="1235.52" y1="1794.24" x2="1219.68" y2="1733.76" style="stroke-width:2.00px;stroke:rgb(127,127,127);stroke-opacity:1.00" />
<line x1="1267.20" y1="1774.08" x2="1219.68" y2="1733.76" style="stroke-width:2.00px;stroke:rgb(127,127,127);stroke-opacity:1.00" />
<line x1="1520.64" y1="1290.24" x2="1465.20" y2="1249.92" style="stroke-width:2.00px;stroke:rgb(127,127,127);stroke-opacity:1.00" />
<line x1="1523.81" y1="1209.60" x2="1465.20" y2="1249.92" style="stroke-width:2.00px;stroke:rgb(127,127,127);stroke-opacity:1.00" />
<text x="792.00" y="60.48" xml:space="preserve" style="fill:black;font-size:39.60px;font-family:Times-Roman;text-anchor:middle" >Proportion of Whites and Negroes in the different classes</text>
<text x="792.00" y="110.88" xml:space="preserve" style="fill:black;font-size:39.60px;font-family:Times-Roman;text-anchor:middle" >occupation in the United States</text>
<text x="792.00" y="211.68" xml:space="preserve" style="fill:black;font-size:27.72px;font-family:Times-Roman;text-anchor:middle" >Proportion des blancs et des Nègres dans les diverses especes d&#39; occupations en Amerique</text>
<text x="792.00" y="312.48" xml:space="preserve" style="fill:black;font-size:27.72px;font-family:Times-Roman;text-anchor:middle" >Done by Atlanta University</text>
<text x="792.00" y="524.16" xml:space="preserve" style="fill:black;font-size:19.80px;font-family:Helvetica;text-anchor:middle" >ALL OCCUPATIONS</text>
<text x="792.00" y="1915.20" xml:space="preserve" style="fill:black;font-size:19.80px;font-family:Helvetica;text-anchor:middle" >DOMESTIC AND PERSONAL SERVICE</text>
<g transform="rotate(62) translate(1354.32,1653.12)">
<text x="1354.32" y="1653.12" xml:space="preserve" style="fill:black;font-size:19.80px;font-family:Helvetica;text-anchor:start" >TRADE AND TRANSPORTATION</text>
</g>
<g transform="rotate(65) translate(126.72,1008.00)">
<text x="126.72" y="1008.00" xml:space="preserve" style="fill:black;font-size:19.80px;font-family:Helvetica;text-anchor:start" >AGRICULTURE</text>
</g>
<g transform="rotate(305) translate(1298.88,725.76)">
<text x="1298.88" y="725.76" xml:space="preserve" style="fill:black;font-size:19.80px;font-family:Helvetica;text-anchor:start" >MANUFACTURING</text>
</g>
<g transform="rotate(299) translate(1405.80,876.96)">
<text x="1405.80" y="876.96" xml:space="preserve" style="fill:black;font-size:19.80px;font-family:Helvetica;text-anchor:start" >AND</text>
</g>
<g transform="rotate(287) translate(1435.10,932.40)">
<text x="1435.10" y="932.40" xml:space="preserve" style="fill:black;font-size:19.80px;font-family:Helvetica;text-anchor:start" >MECHANICAL</text>
</g>
<g transform="rotate(278) translate(1477.08,1073.52)">
<text x="1477.08" y="1073.52" xml:space="preserve" style="fill:black;font-size:19.80px;font-family:Helvetica;text-anchor:start" >INDUSTRIES</text>
</g>
<g transform="rotate(300) translate(158.40,1512.00)">
<text x="158.40" y="1512.00" xml:space="preserve" style="fill:black;font-size:19.80px;font-family:Helvetica;text-anchor:start" >PROFESSIONS</text>
</g>
</a>
</svg>
